<!DOCTYPE svg PUBLIC "-//W3C//DTD SVG 1.1//EN" "http://www.w3.org/Graphics/SVG/1.1/DTD/svg11.dtd">
<!-- Uploaded to: SVG Repo, www.svgrepo.com, Transformed by: SVG Repo Mixer Tools -->
<svg width="135px" height="135px" viewBox="0 0 24.00 24.00" xmlns="http://www.w3.org/2000/svg" fill="none" stroke="#000000">
<g id="SVGRepo_bgCarrier" stroke-width="0"/>
<g id="SVGRepo_tracerCarrier" stroke-linecap="round" stroke-linejoin="round"/>
<g id="SVGRepo_iconCarrier">
<path fill="#fafafa" stroke="#fafafa" stroke-linecap="round" stroke-linejoin="round" stroke-width="0.552" d="M16.948 9.95 14.998 8v6.587c0 .89-1.077 1.337-1.707.707L11.996 14c-.5-.5-1.701-.8-2.502 0-.8.8-.5 2 0 2.5l3.603 4.4A3 3 0 0 0 15.42 22H18a1 1 0 0 0 1-1v-6.1a7 7 0 0 0-2.052-4.95z"/>
<path stroke="#fafafa" stroke-linecap="round" stroke-linejoin="round" stroke-width="0.552" d="M11 2h2a2 2 0 0 1 2 2v2m-4-4c0 1.333.8 4 4 4m-4-4H9m6 4v6M5 12v2a2 2 0 0 0 2 2h2c0-1.333-.8-4-4-4zm0 0V6m4-4H7a2 2 0 0 0-2 2v2m4-4c0 1.333-.8 4-4 4"/>
<circle cx="10" cy="9" r="1" stroke="#fafafa" stroke-linecap="round" stroke-linejoin="round" stroke-width="0.552" transform="rotate(90 10 9)"/>
</g>
</svg>